<svg xmlns="http://www.w3.org/2000/svg" xmlns:xlink="http://www.w3.org/1999/xlink" width="200" zoomAndPan="magnify" viewBox="0 0 150 37.5" height="50" preserveAspectRatio="xMidYMid meet" version="1.0"><defs><g/><clipPath id="f9f94fa21c"><path d="M 9.460938 2.140625 L 28 2.140625 L 28 29 L 9.460938 29 Z M 9.460938 2.140625 " clip-rule="nonzero"/></clipPath><clipPath id="8698f8da77"><path d="M 9.460938 2.140625 L 28 2.140625 L 28 29 L 9.460938 29 Z M 9.460938 2.140625 " clip-rule="nonzero"/></clipPath><clipPath id="8d6c553d1a"><path d="M 5 16 L 24 16 L 24 32 L 5 32 Z M 5 16 " clip-rule="nonzero"/></clipPath><clipPath id="3038d2f8c2"><path d="M 19.832031 34.894531 L 1.277344 24.105469 L 6.484375 15.148438 L 25.042969 25.9375 Z M 19.832031 34.894531 " clip-rule="nonzero"/></clipPath><clipPath id="4190efc03c"><path d="M 19.832031 34.894531 L 1.277344 24.105469 L 6.484375 15.148438 L 25.042969 25.9375 Z M 19.832031 34.894531 " clip-rule="nonzero"/></clipPath><clipPath id="b5b364b194"><path d="M 19.832031 34.894531 L 1.277344 24.105469 L 6.484375 15.148438 L 25.042969 25.9375 Z M 19.832031 34.894531 " clip-rule="nonzero"/></clipPath></defs><g clip-path="url(#f9f94fa21c)"><path fill="#fe3c47" d="M 26.277344 15.210938 L 18.5 2.488281 L 11.292969 15.125 C 9.613281 17.800781 9.464844 21.285156 11.230469 24.167969 C 13.734375 28.265625 19.136719 29.582031 23.292969 27.109375 C 27.445312 24.636719 28.785156 19.3125 26.277344 15.210938 Z M 26.277344 15.210938 " fill-opacity="1" fill-rule="nonzero"/></g><g fill="#000000" fill-opacity="1"><g transform="translate(31.494904, 23.574689)"><g><path d="M 5.0625 0.1875 C 4.164062 0.1875 3.300781 0.0664062 2.46875 -0.171875 C 1.632812 -0.410156 0.960938 -0.722656 0.453125 -1.109375 L 1.34375 -3.078125 C 1.820312 -2.722656 2.394531 -2.4375 3.0625 -2.21875 C 3.738281 -2.007812 4.410156 -1.90625 5.078125 -1.90625 C 5.816406 -1.90625 6.363281 -2.015625 6.71875 -2.234375 C 7.070312 -2.453125 7.25 -2.75 7.25 -3.125 C 7.25 -3.382812 7.144531 -3.601562 6.9375 -3.78125 C 6.726562 -3.96875 6.457031 -4.113281 6.125 -4.21875 C 5.800781 -4.320312 5.359375 -4.441406 4.796875 -4.578125 C 3.929688 -4.773438 3.222656 -4.976562 2.671875 -5.1875 C 2.128906 -5.394531 1.660156 -5.722656 1.265625 -6.171875 C 0.867188 -6.617188 0.671875 -7.222656 0.671875 -7.984375 C 0.671875 -8.640625 0.847656 -9.234375 1.203125 -9.765625 C 1.566406 -10.296875 2.101562 -10.71875 2.8125 -11.03125 C 3.53125 -11.34375 4.40625 -11.5 5.4375 -11.5 C 6.164062 -11.5 6.875 -11.410156 7.5625 -11.234375 C 8.25 -11.066406 8.851562 -10.820312 9.375 -10.5 L 8.5625 -8.515625 C 7.519531 -9.109375 6.472656 -9.40625 5.421875 -9.40625 C 4.691406 -9.40625 4.148438 -9.285156 3.796875 -9.046875 C 3.453125 -8.804688 3.28125 -8.492188 3.28125 -8.109375 C 3.28125 -7.722656 3.476562 -7.4375 3.875 -7.25 C 4.28125 -7.0625 4.898438 -6.875 5.734375 -6.6875 C 6.597656 -6.476562 7.300781 -6.269531 7.84375 -6.0625 C 8.394531 -5.863281 8.867188 -5.539062 9.265625 -5.09375 C 9.660156 -4.65625 9.859375 -4.0625 9.859375 -3.3125 C 9.859375 -2.664062 9.675781 -2.078125 9.3125 -1.546875 C 8.945312 -1.015625 8.40625 -0.59375 7.6875 -0.28125 C 6.96875 0.03125 6.09375 0.1875 5.0625 0.1875 Z M 5.0625 0.1875 "/></g></g></g><g fill="#000000" fill-opacity="1"><g transform="translate(41.803049, 23.574689)"><g><path d="M 8.78125 -2.421875 L 3.53125 -2.421875 L 2.53125 0 L -0.140625 0 L 4.890625 -11.3125 L 7.484375 -11.3125 L 12.53125 0 L 9.796875 0 Z M 7.96875 -4.40625 L 6.171875 -8.734375 L 4.375 -4.40625 Z M 7.96875 -4.40625 "/></g></g></g><g fill="#000000" fill-opacity="1"><g transform="translate(54.179287, 23.574689)"><g><path d="M 3.953125 -9.203125 L 3.953125 -6.21875 L 9.1875 -6.21875 L 9.1875 -4.125 L 3.953125 -4.125 L 3.953125 0 L 1.34375 0 L 1.34375 -11.3125 L 9.890625 -11.3125 L 9.890625 -9.203125 Z M 3.953125 -9.203125 "/></g></g></g><g fill="#000000" fill-opacity="1"><g transform="translate(64.503592, 23.574689)"><g><path d="M 10.09375 -2.09375 L 10.09375 0 L 1.34375 0 L 1.34375 -11.3125 L 9.890625 -11.3125 L 9.890625 -9.203125 L 3.9375 -9.203125 L 3.9375 -6.75 L 9.1875 -6.75 L 9.1875 -4.71875 L 3.9375 -4.71875 L 3.9375 -2.09375 Z M 10.09375 -2.09375 "/></g></g></g><g fill="#000000" fill-opacity="1"><g transform="translate(75.344921, 23.574689)"><g/></g></g><g fill="#000000" fill-opacity="1"><g transform="translate(79.917346, 23.574689)"><g><path d="M 9.640625 -5.875 C 10.285156 -5.675781 10.789062 -5.335938 11.15625 -4.859375 C 11.53125 -4.378906 11.71875 -3.785156 11.71875 -3.078125 C 11.71875 -2.085938 11.332031 -1.328125 10.5625 -0.796875 C 9.789062 -0.265625 8.664062 0 7.1875 0 L 1.34375 0 L 1.34375 -11.3125 L 6.859375 -11.3125 C 8.242188 -11.3125 9.300781 -11.046875 10.03125 -10.515625 C 10.769531 -9.984375 11.140625 -9.269531 11.140625 -8.375 C 11.140625 -7.820312 11.007812 -7.328125 10.75 -6.890625 C 10.488281 -6.460938 10.117188 -6.125 9.640625 -5.875 Z M 3.9375 -9.34375 L 3.9375 -6.671875 L 6.546875 -6.671875 C 7.191406 -6.671875 7.679688 -6.78125 8.015625 -7 C 8.347656 -7.226562 8.515625 -7.566406 8.515625 -8.015625 C 8.515625 -8.453125 8.347656 -8.78125 8.015625 -9 C 7.679688 -9.226562 7.191406 -9.34375 6.546875 -9.34375 Z M 7 -1.96875 C 7.6875 -1.96875 8.203125 -2.082031 8.546875 -2.3125 C 8.898438 -2.539062 9.078125 -2.890625 9.078125 -3.359375 C 9.078125 -4.296875 8.382812 -4.765625 7 -4.765625 L 3.9375 -4.765625 L 3.9375 -1.96875 Z M 7 -1.96875 "/></g></g></g><g fill="#000000" fill-opacity="1"><g transform="translate(92.27743, 23.574689)"><g><path d="M 1.34375 -11.3125 L 3.953125 -11.3125 L 3.953125 -2.125 L 9.625 -2.125 L 9.625 0 L 1.34375 0 Z M 1.34375 -11.3125 "/></g></g></g><g fill="#000000" fill-opacity="1"><g transform="translate(102.036239, 23.574689)"><g><path d="M 6.8125 0.1875 C 5.644531 0.1875 4.585938 -0.0625 3.640625 -0.5625 C 2.703125 -1.070312 1.960938 -1.769531 1.421875 -2.65625 C 0.890625 -3.539062 0.625 -4.539062 0.625 -5.65625 C 0.625 -6.757812 0.890625 -7.753906 1.421875 -8.640625 C 1.960938 -9.535156 2.703125 -10.234375 3.640625 -10.734375 C 4.585938 -11.242188 5.644531 -11.5 6.8125 -11.5 C 7.988281 -11.5 9.046875 -11.242188 9.984375 -10.734375 C 10.921875 -10.234375 11.65625 -9.535156 12.1875 -8.640625 C 12.726562 -7.753906 13 -6.757812 13 -5.65625 C 13 -4.539062 12.726562 -3.539062 12.1875 -2.65625 C 11.65625 -1.769531 10.921875 -1.070312 9.984375 -0.5625 C 9.046875 -0.0625 7.988281 0.1875 6.8125 0.1875 Z M 6.8125 -2.03125 C 7.476562 -2.03125 8.082031 -2.179688 8.625 -2.484375 C 9.164062 -2.796875 9.585938 -3.226562 9.890625 -3.78125 C 10.203125 -4.332031 10.359375 -4.957031 10.359375 -5.65625 C 10.359375 -6.351562 10.203125 -6.976562 9.890625 -7.53125 C 9.585938 -8.082031 9.164062 -8.507812 8.625 -8.8125 C 8.082031 -9.125 7.476562 -9.28125 6.8125 -9.28125 C 6.144531 -9.28125 5.539062 -9.125 5 -8.8125 C 4.46875 -8.507812 4.046875 -8.082031 3.734375 -7.53125 C 3.429688 -6.976562 3.28125 -6.351562 3.28125 -5.65625 C 3.28125 -4.957031 3.429688 -4.332031 3.734375 -3.78125 C 4.046875 -3.226562 4.46875 -2.796875 5 -2.484375 C 5.539062 -2.179688 6.144531 -2.03125 6.8125 -2.03125 Z M 6.8125 -2.03125 "/></g></g></g><g fill="#000000" fill-opacity="1"><g transform="translate(115.67272, 23.574689)"><g><path d="M 6.8125 0.1875 C 5.644531 0.1875 4.585938 -0.0625 3.640625 -0.5625 C 2.703125 -1.070312 1.960938 -1.769531 1.421875 -2.65625 C 0.890625 -3.539062 0.625 -4.539062 0.625 -5.65625 C 0.625 -6.757812 0.890625 -7.753906 1.421875 -8.640625 C 1.960938 -9.535156 2.703125 -10.234375 3.640625 -10.734375 C 4.585938 -11.242188 5.644531 -11.5 6.8125 -11.5 C 7.988281 -11.5 9.046875 -11.242188 9.984375 -10.734375 C 10.921875 -10.234375 11.65625 -9.535156 12.1875 -8.640625 C 12.726562 -7.753906 13 -6.757812 13 -5.65625 C 13 -4.539062 12.726562 -3.539062 12.1875 -2.65625 C 11.65625 -1.769531 10.921875 -1.070312 9.984375 -0.5625 C 9.046875 -0.0625 7.988281 0.1875 6.8125 0.1875 Z M 6.8125 -2.03125 C 7.476562 -2.03125 8.082031 -2.179688 8.625 -2.484375 C 9.164062 -2.796875 9.585938 -3.226562 9.890625 -3.78125 C 10.203125 -4.332031 10.359375 -4.957031 10.359375 -5.65625 C 10.359375 -6.351562 10.203125 -6.976562 9.890625 -7.53125 C 9.585938 -8.082031 9.164062 -8.507812 8.625 -8.8125 C 8.082031 -9.125 7.476562 -9.28125 6.8125 -9.28125 C 6.144531 -9.28125 5.539062 -9.125 5 -8.8125 C 4.46875 -8.507812 4.046875 -8.082031 3.734375 -7.53125 C 3.429688 -6.976562 3.28125 -6.351562 3.28125 -5.65625 C 3.28125 -4.957031 3.429688 -4.332031 3.734375 -3.78125 C 4.046875 -3.226562 4.46875 -2.796875 5 -2.484375 C 5.539062 -2.179688 6.144531 -2.03125 6.8125 -2.03125 Z M 6.8125 -2.03125 "/></g></g></g><g fill="#000000" fill-opacity="1"><g transform="translate(129.309202, 23.574689)"><g><path d="M 1.34375 -11.3125 L 6.484375 -11.3125 C 7.710938 -11.3125 8.796875 -11.078125 9.734375 -10.609375 C 10.671875 -10.140625 11.398438 -9.476562 11.921875 -8.625 C 12.453125 -7.769531 12.71875 -6.78125 12.71875 -5.65625 C 12.71875 -4.519531 12.453125 -3.523438 11.921875 -2.671875 C 11.398438 -1.828125 10.671875 -1.171875 9.734375 -0.703125 C 8.796875 -0.234375 7.710938 0 6.484375 0 L 1.34375 0 Z M 6.34375 -2.15625 C 7.476562 -2.15625 8.378906 -2.46875 9.046875 -3.09375 C 9.722656 -3.71875 10.0625 -4.570312 10.0625 -5.65625 C 10.0625 -6.726562 9.722656 -7.578125 9.046875 -8.203125 C 8.378906 -8.835938 7.476562 -9.15625 6.34375 -9.15625 L 3.953125 -9.15625 L 3.953125 -2.15625 Z M 6.34375 -2.15625 "/></g></g></g><g clip-path="url(#8698f8da77)"><path fill="#fe3c47" d="M 26.277344 15.210938 L 18.5 2.488281 L 11.292969 15.125 C 9.613281 17.800781 9.464844 21.285156 11.230469 24.167969 C 13.734375 28.265625 19.136719 29.582031 23.292969 27.109375 C 27.445312 24.636719 28.785156 19.3125 26.277344 15.210938 Z M 26.277344 15.210938 " fill-opacity="1" fill-rule="nonzero"/></g><g clip-path="url(#8d6c553d1a)"><g clip-path="url(#3038d2f8c2)"><g clip-path="url(#4190efc03c)"><g clip-path="url(#b5b364b194)"><path fill="#000000" d="M 9.746094 19.132812 C 9.304688 20.734375 9.359375 22.320312 9.910156 23.890625 C 10.492188 25.566406 11.5 26.933594 12.929688 27.988281 C 14.464844 29.109375 16.179688 29.699219 18.078125 29.753906 C 20.09375 29.8125 21.949219 29.292969 23.640625 28.203125 C 22.097656 29.671875 20.269531 30.570312 18.164062 30.90625 C 15.9375 31.257812 13.808594 30.953125 11.769531 29.988281 C 9.625 28.964844 7.957031 27.429688 6.765625 25.375 C 5.507812 23.222656 4.96875 20.910156 5.148438 18.433594 L 5.15625 18.316406 C 5.179688 18.007812 5.257812 17.714844 5.398438 17.441406 C 5.539062 17.164062 5.722656 16.925781 5.957031 16.722656 C 6.195312 16.523438 6.457031 16.375 6.753906 16.277344 C 7.046875 16.179688 7.347656 16.144531 7.65625 16.167969 C 7.964844 16.191406 8.257812 16.273438 8.535156 16.414062 C 8.8125 16.554688 9.054688 16.742188 9.253906 16.976562 C 9.457031 17.210938 9.609375 17.476562 9.707031 17.769531 C 9.804688 18.0625 9.839844 18.363281 9.816406 18.671875 C 9.808594 18.828125 9.785156 18.984375 9.746094 19.132812 Z M 9.746094 19.132812 " fill-opacity="1" fill-rule="nonzero"/></g></g></g></g><g fill="#000000" fill-opacity="1"><g transform="translate(31.501868, 23.684211)"><g><path d="M 5.0625 0.1875 C 4.164062 0.1875 3.300781 0.0664062 2.46875 -0.171875 C 1.632812 -0.410156 0.960938 -0.722656 0.453125 -1.109375 L 1.34375 -3.078125 C 1.820312 -2.722656 2.394531 -2.4375 3.0625 -2.21875 C 3.738281 -2.007812 4.410156 -1.90625 5.078125 -1.90625 C 5.816406 -1.90625 6.363281 -2.015625 6.71875 -2.234375 C 7.070312 -2.453125 7.25 -2.75 7.25 -3.125 C 7.25 -3.382812 7.144531 -3.601562 6.9375 -3.78125 C 6.726562 -3.96875 6.457031 -4.113281 6.125 -4.21875 C 5.800781 -4.320312 5.359375 -4.441406 4.796875 -4.578125 C 3.929688 -4.773438 3.222656 -4.976562 2.671875 -5.1875 C 2.128906 -5.394531 1.660156 -5.722656 1.265625 -6.171875 C 0.867188 -6.617188 0.671875 -7.222656 0.671875 -7.984375 C 0.671875 -8.640625 0.847656 -9.234375 1.203125 -9.765625 C 1.566406 -10.296875 2.101562 -10.71875 2.8125 -11.03125 C 3.53125 -11.34375 4.40625 -11.5 5.4375 -11.5 C 6.164062 -11.5 6.875 -11.410156 7.5625 -11.234375 C 8.25 -11.066406 8.851562 -10.820312 9.375 -10.5 L 8.5625 -8.515625 C 7.519531 -9.109375 6.472656 -9.40625 5.421875 -9.40625 C 4.691406 -9.40625 4.148438 -9.285156 3.796875 -9.046875 C 3.453125 -8.804688 3.28125 -8.492188 3.28125 -8.109375 C 3.28125 -7.722656 3.476562 -7.4375 3.875 -7.25 C 4.28125 -7.0625 4.898438 -6.875 5.734375 -6.6875 C 6.597656 -6.476562 7.300781 -6.269531 7.84375 -6.0625 C 8.394531 -5.863281 8.867188 -5.539062 9.265625 -5.09375 C 9.660156 -4.65625 9.859375 -4.0625 9.859375 -3.3125 C 9.859375 -2.664062 9.675781 -2.078125 9.3125 -1.546875 C 8.945312 -1.015625 8.40625 -0.59375 7.6875 -0.28125 C 6.96875 0.03125 6.09375 0.1875 5.0625 0.1875 Z M 5.0625 0.1875 "/></g></g></g><g fill="#000000" fill-opacity="1"><g transform="translate(41.809218, 23.684211)"><g><path d="M 8.78125 -2.421875 L 3.53125 -2.421875 L 2.53125 0 L -0.140625 0 L 4.890625 -11.3125 L 7.484375 -11.3125 L 12.53125 0 L 9.796875 0 Z M 7.96875 -4.40625 L 6.171875 -8.734375 L 4.375 -4.40625 Z M 7.96875 -4.40625 "/></g></g></g><g fill="#000000" fill-opacity="1"><g transform="translate(54.184501, 23.684211)"><g><path d="M 3.953125 -9.203125 L 3.953125 -6.21875 L 9.1875 -6.21875 L 9.1875 -4.125 L 3.953125 -4.125 L 3.953125 0 L 1.34375 0 L 1.34375 -11.3125 L 9.890625 -11.3125 L 9.890625 -9.203125 Z M 3.953125 -9.203125 "/></g></g></g><g fill="#000000" fill-opacity="1"><g transform="translate(64.508001, 23.684211)"><g><path d="M 10.09375 -2.09375 L 10.09375 0 L 1.34375 0 L 1.34375 -11.3125 L 9.890625 -11.3125 L 9.890625 -9.203125 L 3.9375 -9.203125 L 3.9375 -6.75 L 9.1875 -6.75 L 9.1875 -4.71875 L 3.9375 -4.71875 L 3.9375 -2.09375 Z M 10.09375 -2.09375 "/></g></g></g><g fill="#000000" fill-opacity="1"><g transform="translate(75.348484, 23.684211)"><g/></g></g><g fill="#000000" fill-opacity="1"><g transform="translate(79.920549, 23.684211)"><g><path d="M 9.640625 -5.875 C 10.285156 -5.675781 10.789062 -5.335938 11.15625 -4.859375 C 11.53125 -4.378906 11.71875 -3.785156 11.71875 -3.078125 C 11.71875 -2.085938 11.332031 -1.328125 10.5625 -0.796875 C 9.789062 -0.265625 8.664062 0 7.1875 0 L 1.34375 0 L 1.34375 -11.3125 L 6.859375 -11.3125 C 8.242188 -11.3125 9.300781 -11.046875 10.03125 -10.515625 C 10.769531 -9.984375 11.140625 -9.269531 11.140625 -8.375 C 11.140625 -7.820312 11.007812 -7.328125 10.75 -6.890625 C 10.488281 -6.460938 10.117188 -6.125 9.640625 -5.875 Z M 3.9375 -9.34375 L 3.9375 -6.671875 L 6.546875 -6.671875 C 7.191406 -6.671875 7.679688 -6.78125 8.015625 -7 C 8.347656 -7.226562 8.515625 -7.566406 8.515625 -8.015625 C 8.515625 -8.453125 8.347656 -8.78125 8.015625 -9 C 7.679688 -9.226562 7.191406 -9.34375 6.546875 -9.34375 Z M 7 -1.96875 C 7.6875 -1.96875 8.203125 -2.082031 8.546875 -2.3125 C 8.898438 -2.539062 9.078125 -2.890625 9.078125 -3.359375 C 9.078125 -4.296875 8.382812 -4.765625 7 -4.765625 L 3.9375 -4.765625 L 3.9375 -1.96875 Z M 7 -1.96875 "/></g></g></g><g fill="#000000" fill-opacity="1"><g transform="translate(92.279671, 23.684211)"><g><path d="M 1.34375 -11.3125 L 3.953125 -11.3125 L 3.953125 -2.125 L 9.625 -2.125 L 9.625 0 L 1.34375 0 Z M 1.34375 -11.3125 "/></g></g></g><g fill="#000000" fill-opacity="1"><g transform="translate(102.037728, 23.684211)"><g><path d="M 6.8125 0.1875 C 5.644531 0.1875 4.585938 -0.0625 3.640625 -0.5625 C 2.703125 -1.070312 1.960938 -1.769531 1.421875 -2.65625 C 0.890625 -3.539062 0.625 -4.539062 0.625 -5.65625 C 0.625 -6.757812 0.890625 -7.753906 1.421875 -8.640625 C 1.960938 -9.535156 2.703125 -10.234375 3.640625 -10.734375 C 4.585938 -11.242188 5.644531 -11.5 6.8125 -11.5 C 7.988281 -11.5 9.046875 -11.242188 9.984375 -10.734375 C 10.921875 -10.234375 11.65625 -9.535156 12.1875 -8.640625 C 12.726562 -7.753906 13 -6.757812 13 -5.65625 C 13 -4.539062 12.726562 -3.539062 12.1875 -2.65625 C 11.65625 -1.769531 10.921875 -1.070312 9.984375 -0.5625 C 9.046875 -0.0625 7.988281 0.1875 6.8125 0.1875 Z M 6.8125 -2.03125 C 7.476562 -2.03125 8.082031 -2.179688 8.625 -2.484375 C 9.164062 -2.796875 9.585938 -3.226562 9.890625 -3.78125 C 10.203125 -4.332031 10.359375 -4.957031 10.359375 -5.65625 C 10.359375 -6.351562 10.203125 -6.976562 9.890625 -7.53125 C 9.585938 -8.082031 9.164062 -8.507812 8.625 -8.8125 C 8.082031 -9.125 7.476562 -9.28125 6.8125 -9.28125 C 6.144531 -9.28125 5.539062 -9.125 5 -8.8125 C 4.46875 -8.507812 4.046875 -8.082031 3.734375 -7.53125 C 3.429688 -6.976562 3.28125 -6.351562 3.28125 -5.65625 C 3.28125 -4.957031 3.429688 -4.332031 3.734375 -3.78125 C 4.046875 -3.226562 4.46875 -2.796875 5 -2.484375 C 5.539062 -2.179688 6.144531 -2.03125 6.8125 -2.03125 Z M 6.8125 -2.03125 "/></g></g></g><g fill="#000000" fill-opacity="1"><g transform="translate(115.673152, 23.684211)"><g><path d="M 6.8125 0.1875 C 5.644531 0.1875 4.585938 -0.0625 3.640625 -0.5625 C 2.703125 -1.070312 1.960938 -1.769531 1.421875 -2.65625 C 0.890625 -3.539062 0.625 -4.539062 0.625 -5.65625 C 0.625 -6.757812 0.890625 -7.753906 1.421875 -8.640625 C 1.960938 -9.535156 2.703125 -10.234375 3.640625 -10.734375 C 4.585938 -11.242188 5.644531 -11.5 6.8125 -11.5 C 7.988281 -11.5 9.046875 -11.242188 9.984375 -10.734375 C 10.921875 -10.234375 11.65625 -9.535156 12.1875 -8.640625 C 12.726562 -7.753906 13 -6.757812 13 -5.65625 C 13 -4.539062 12.726562 -3.539062 12.1875 -2.65625 C 11.65625 -1.769531 10.921875 -1.070312 9.984375 -0.5625 C 9.046875 -0.0625 7.988281 0.1875 6.8125 0.1875 Z M 6.8125 -2.03125 C 7.476562 -2.03125 8.082031 -2.179688 8.625 -2.484375 C 9.164062 -2.796875 9.585938 -3.226562 9.890625 -3.78125 C 10.203125 -4.332031 10.359375 -4.957031 10.359375 -5.65625 C 10.359375 -6.351562 10.203125 -6.976562 9.890625 -7.53125 C 9.585938 -8.082031 9.164062 -8.507812 8.625 -8.8125 C 8.082031 -9.125 7.476562 -9.28125 6.8125 -9.28125 C 6.144531 -9.28125 5.539062 -9.125 5 -8.8125 C 4.46875 -8.507812 4.046875 -8.082031 3.734375 -7.53125 C 3.429688 -6.976562 3.28125 -6.351562 3.28125 -5.65625 C 3.28125 -4.957031 3.429688 -4.332031 3.734375 -3.78125 C 4.046875 -3.226562 4.46875 -2.796875 5 -2.484375 C 5.539062 -2.179688 6.144531 -2.03125 6.8125 -2.03125 Z M 6.8125 -2.03125 "/></g></g></g><g fill="#000000" fill-opacity="1"><g transform="translate(129.308576, 23.684211)"><g><path d="M 1.34375 -11.3125 L 6.484375 -11.3125 C 7.710938 -11.3125 8.796875 -11.078125 9.734375 -10.609375 C 10.671875 -10.140625 11.398438 -9.476562 11.921875 -8.625 C 12.453125 -7.769531 12.71875 -6.78125 12.71875 -5.65625 C 12.71875 -4.519531 12.453125 -3.523438 11.921875 -2.671875 C 11.398438 -1.828125 10.671875 -1.171875 9.734375 -0.703125 C 8.796875 -0.234375 7.710938 0 6.484375 0 L 1.34375 0 Z M 6.34375 -2.15625 C 7.476562 -2.15625 8.378906 -2.46875 9.046875 -3.09375 C 9.722656 -3.71875 10.0625 -4.570312 10.0625 -5.65625 C 10.0625 -6.726562 9.722656 -7.578125 9.046875 -8.203125 C 8.378906 -8.835938 7.476562 -9.15625 6.34375 -9.15625 L 3.953125 -9.15625 L 3.953125 -2.15625 Z M 6.34375 -2.15625 "/></g></g></g></svg>