<svg xmlns="http://www.w3.org/2000/svg" xmlns:xlink="http://www.w3.org/1999/xlink" width="40" zoomAndPan="magnify" viewBox="0 0 30 30.000001" height="40" preserveAspectRatio="xMidYMid meet" version="1.0"><defs><clipPath id="201b3f9906"><path d="M 8 2.203125 L 25 2.203125 L 25 26 L 8 26 Z M 8 2.203125 " clip-rule="nonzero"/></clipPath><clipPath id="5c1a2dc529"><path d="M 3 13 L 21 13 L 21 28 L 3 28 Z M 3 13 " clip-rule="nonzero"/></clipPath><clipPath id="c7d59fcea2"><path d="M 17.179688 31.058594 L 0.238281 21.207031 L 4.980469 13.050781 L 21.921875 22.902344 Z M 17.179688 31.058594 " clip-rule="nonzero"/></clipPath><clipPath id="a9ea6ceac5"><path d="M 17.179688 31.058594 L 0.238281 21.207031 L 4.980469 13.050781 L 21.921875 22.902344 Z M 17.179688 31.058594 " clip-rule="nonzero"/></clipPath><clipPath id="c073cbc75f"><path d="M 17.179688 31.058594 L 0.238281 21.207031 L 4.980469 13.050781 L 21.921875 22.902344 Z M 17.179688 31.058594 " clip-rule="nonzero"/></clipPath></defs><g clip-path="url(#201b3f9906)"><path fill="#fe3c47" d="M 22.894531 13.78125 L 16.003906 2.507812 L 9.617188 13.703125 C 8.128906 16.074219 8 19.160156 9.5625 21.714844 C 11.78125 25.347656 16.566406 26.515625 20.25 24.324219 C 23.929688 22.132812 25.113281 17.414062 22.894531 13.78125 Z M 22.894531 13.78125 " fill-opacity="1" fill-rule="nonzero"/></g><g clip-path="url(#5c1a2dc529)"><g clip-path="url(#c7d59fcea2)"><g clip-path="url(#a9ea6ceac5)"><g clip-path="url(#c073cbc75f)"><path fill="#000000" d="M 7.957031 16.683594 C 7.558594 18.144531 7.609375 19.585938 8.117188 21.019531 C 8.648438 22.546875 9.566406 23.792969 10.875 24.757812 C 12.277344 25.78125 13.84375 26.320312 15.574219 26.371094 C 17.414062 26.425781 19.105469 25.957031 20.648438 24.96875 C 19.242188 26.300781 17.578125 27.121094 15.652344 27.421875 C 13.625 27.742188 11.679688 27.460938 9.816406 26.578125 C 7.859375 25.644531 6.335938 24.242188 5.246094 22.367188 C 4.097656 20.40625 3.601562 18.296875 3.761719 16.039062 L 3.769531 15.933594 C 3.789062 15.652344 3.863281 15.386719 3.988281 15.136719 C 4.117188 14.882812 4.285156 14.667969 4.5 14.484375 C 4.714844 14.300781 4.953125 14.164062 5.222656 14.078125 C 5.492188 13.992188 5.765625 13.957031 6.050781 13.980469 C 6.332031 14.003906 6.597656 14.078125 6.851562 14.203125 C 7.105469 14.332031 7.324219 14.503906 7.507812 14.71875 C 7.695312 14.933594 7.832031 15.171875 7.921875 15.441406 C 8.011719 15.710938 8.042969 15.984375 8.023438 16.265625 C 8.015625 16.40625 7.992188 16.546875 7.957031 16.683594 Z M 7.957031 16.683594 " fill-opacity="1" fill-rule="nonzero"/></g></g></g></g></svg>